# xmcd
#
# Track frame offsets: 
#        150
#        15945
#        30905
#        51989
#        73639
#        90439
#        108265
#        126895
#        144237
#        165157
#        179897
#
# Disc length: 2726 seconds
#
# Revision: 0
# Processed by: cddbd v1.5.2PL0 Copyright (c) Steve Scherf et al.
# Submitted via: ExactAudioCopyFreeDBPlugin 1.0
#
DISCID=820aa40b
DTITLE=Stefania Calandra - Calandra's Blues
DYEAR=2012
DGENRE=Blues
TTITLE0=Na Gulia
TTITLE1=Bluff
TTITLE2=Lasciamo Perdere Il Nome
TTITLE3=Spirits In Memphis
TTITLE4=Navigators From Space
TTITLE5=Nobody's Like You
TTITLE6=Black Day
TTITLE7=Apres L'amour Le De'Lire
TTITLE8=Rock Me Baby
TTITLE9=Troppo Tardi
TTITLE10=Cio' Che Fa Bene Cio' Che Fa Male
EXTD=
EXTT0=
EXTT1=
EXTT2=
EXTT3=
EXTT4=
EXTT5=
EXTT6=
EXTT7=
EXTT8=
EXTT9=
EXTT10=
PLAYORDER=
